<?xml version="1.0" encoding="utf-8"?>
<!-- Generator: Adobe Illustrator 23.0.4, SVG Export Plug-In . SVG Version: 6.00 Build 0)  -->
<svg version="1.1" id="Layer_1" xmlns="http://www.w3.org/2000/svg" xmlns:xlink="http://www.w3.org/1999/xlink" x="0px" y="0px"
	 viewBox="0 0 600 600" style="enable-background:new 0 0 600 600;" xml:space="preserve">
<style type="text/css">
	.st0{fill:none;stroke:#000000;stroke-width:3.0669;stroke-miterlimit:10;}
</style>
<path class="st0" d="M149.44,593.23c0,0,33.37-54.36,63.62-79.71s29.46-30.52,55.47-39.14s42.6-15.15,81.1-18.25
	c38.5-3.09,74.73-8.6,108.37-38.06s37.81-43.87,49-58.06c11.19-14.19,23.79-28.82,28.18-34.78c4.39-5.96-15.53,2.36-31.05,4.72
	c-15.53,2.36-65.5,13.55-101.28,35.93s-76.5,51.74-98.15,72.14c-21.65,20.4-55.45,39.09-62.96,39.81
	c-7.52,0.72,16.21-25.76,23.5-34.91s22.36-43.85,37.37-60.74c15.01-16.89,11.61-12.78,35.06-29.89
	c23.45-17.12,62.14-42.69,78.63-62.35c16.5-19.66,53.75-59.08,64.67-88.86c10.92-29.79,13.17-42.84,13.52-54.54
	s-7.6-12.4-23.33-3.02c-15.73,9.38-45.97,35.92-58.37,50.65c-12.39,14.73-34.48,49.22-49.97,82.5s-42.39,72.3-46.78,78.27
	s-25.34,33.92-19.56,12.08c5.79-21.85,11.3-34.33,21.71-53.7c10.4-19.37,4.25-34.55,12.93-58.42c8.67-23.86,13.39-56.98,18.1-90.1
	c4.71-33.12-4.6-88.81-25.25-116.74C303.31,20.11,288.69,7.5,281.24,5.88s-14.16,19.73-16.84,31.36s-6.4,42.91,10.53,88.83
	c16.93,45.93,24.12,72.37,36.49,98.02c12.37,25.65,11.45,51.71-13.17,119.69c-24.62,67.98-38.57,80.69-46.36,90.76
	c-7.79,10.08-6.39-5.81-4.36-27.29c2.03-21.49,3.72-31.27,6.02-62.12c2.3-30.85,17.79-64.12,7.81-107.5
	c-9.98-43.38-17.24-67.48-36.4-84.9s-26.54-21.38-28.1-16.28c-1.55,5.11-12.02,26.82-12.69,65.68s3.83,61.47,18.63,100.31
	c14.79,38.84,28.61,30.81,33.5,88.1s-2.2,59.42-15.93,80.57c-13.73,21.15-44.25,55.86-59.96,80.69S127.79,599.22,149.44,593.23z"/>
</svg>
