<?xml version="1.0" encoding="utf-8"?>
<!-- Generator: Adobe Illustrator 23.0.4, SVG Export Plug-In . SVG Version: 6.00 Build 0)  -->
<svg version="1.1" id="Layer_1" xmlns="http://www.w3.org/2000/svg" xmlns:xlink="http://www.w3.org/1999/xlink" x="0px" y="0px"
	 viewBox="0 0 600 600" style="enable-background:new 0 0 600 600;" xml:space="preserve">
<style type="text/css">
	.st0{fill:none;stroke:#000000;stroke-width:5.7373;stroke-miterlimit:10;}
</style>
<path class="st0" d="M8.82,545.23c0,0,8.65-6.85,17.79-11.72s18.27-8.53,33.5-20.1s39.59-19.49,56.03-34.11s26.81-24.36,24.67-34.11
	s-4.57-26.8-11.27-38.98c-6.7-12.18-10.96-37.15-31.06-54.82s-28.02-25.58-31.06-40.81s-5.48-40.2,2.44-56.64
	s15.84-17.66,34.72-15.23s40.2,14.62,54.82,32.28s22.54,43.24,22.54,52.38s9.75,45.68,9.75,52.99s-2.44,37.76,2.44,37.15
	s15.84-10.96,21.93-19.49s26.19-19.49,35.33-42.63s14.01-29.24,11.57-46.29s-5.48-33.5-15.84-61.52s-6.7-91.97,4.87-112.07
	c11.57-20.1,26.19-29.84,43.24-28.63s38.98,12.18,45.07,38.37s1.83,51.77,0,64.56s-9.14,38.37-9.75,46.29s2.44,13.4,5.48,9.75
	s48.73-59.69,52.99-66.39s13.4-18.88,13.4-18.88s2.44-15.23-6.7-37.15s-11.57-57.86-4.26-76.13s16.44-22.54,28.02-18.27
	s19.49,12.79,19.49,24.97s1.83,23.75,4.87,23.75s6.09,4.26,13.4-20.71s43.24-49.94,64.56-59.69s45.68-7.31,59.08,0
	s17.66,27.41,9.75,40.2s-25.58,36.54-37.76,46.9s-24.36,12.18-30.45,16.44s-7.31,11.57,3.05,10.96
	c10.35-0.61,45.68,4.87,51.16,26.19s-3.05,35.33-19.49,45.07s-43.24,10.96-64.56,7.31s-34.11-21.32-42.03-21.93
	s-15.23,3.05-22.54,10.96s-60.91,71.87-62.73,74.31s-4.19,8.95,7.65,6.3c11.84-2.65,31.94-4.48,47.17-8.13s51.77-3.05,69.43,22.54
	s10.35,42.03,7.31,46.9s-12.79,14.62-27.41,18.88s-49.94,1.83-68.22-1.22s-38.37-14.62-45.68-18.27s-20.1-10.35-26.19-7.31
	s-25.58,21.32-37.15,34.11s-34.11,42.03-40.2,46.9s-14.01,8.53-14.01,14.01s10.35,3.65,17.05,1.83s28.63-8.53,59.08-5.48
	s81.01,17.66,87.1,42.63s-3.65,43.24-18.88,51.77s-53.6,18.27-76.74,8.53s-32.89-15.84-49.33-25.58s-19.49-17.05-37.15-17.05
	s-39.59,0.61-49.33,5.48s-51.16,37.15-62.13,46.29s-35.33,27.41-45.68,34.11s-26.19,14.62-34.11,11.57s-14.87-4.87-19.01-13.4
	S3.89,548.89,8.82,545.23z"/>
</svg>
