<?xml version="1.0" encoding="utf-8"?>
<!-- Generator: Adobe Illustrator 23.0.4, SVG Export Plug-In . SVG Version: 6.00 Build 0)  -->
<svg version="1.1" id="Layer_1" xmlns="http://www.w3.org/2000/svg" xmlns:xlink="http://www.w3.org/1999/xlink" x="0px" y="0px"
	 viewBox="0 0 600 600" style="enable-background:new 0 0 600 600;" xml:space="preserve">
<style type="text/css">
	.st0{fill:none;stroke:#010101;stroke-width:2.7849;stroke-miterlimit:10;}
</style>
<path class="st0" d="M17.75,563.53c0,0,7.27-7.24,19.31-13.98s34.2-20.72,47.69-30.34c13.48-9.64,25.06-16.38,23.59-18.79
	c-1.44-2.4-26.41-0.47-45.25-38.04s-1.96-78.52,8.62-103.08c0,0,4.81-8.68,21.19-26.03c16.38-17.35,23.12,4.81,23.59,7.71
	c0.47,2.9,8.68,19.26,16.38,26.03c7.71,6.74,24.09,31.3,25.06,42.38s1.44,34.2,4.34,30.34c2.9-3.84,45.75-79.95,48.18-87.19
	c0,0-27.93-22.52-45.75-53.16s-14.45-78.82-10.11-93.27c4.34-14.45,15.89-36.61,30.34-50.09s15.42-10.61,18.79-8.18
	c3.37,2.4,14.92,26.96,24.09,37.1c9.14,10.11,21.19,29.4,21.19,41.91s-0.97,30.34-3.37,41.41c-2.4,11.08-5.3,32.27-2.9,28.9
	c2.4-3.37,22.63-33.71,43.84-52.49l15.89-15.89c0,0-13.48-27.93-20.22-48.65c-6.74-20.72-13.01-78.05,4.34-107.42
	c17.35-29.4,37.1-33.71,53.96-44.78c16.85-11.08,21.69-3.84,21.69,7.71s0.47,23.12,6.27,45.28c5.8,22.16,3.84,44.78-6.27,73.21
	c-10.11,28.43-14.92,39.51-14.92,39.51s25.06-21.69,56.36-36.61c0,0,15.89-38.54,49.62-52.02c33.71-13.48,44.78-3.37,69.37-6.27
	c0,0,55.86-1.44,61.17-1.44c5.3,0,3.9,5.3,7.49,9.64s-11.82,20.72-22.41,31.8c-10.61,11.08-32.27,50.81-79.95,53.6
	c-47.69,2.79-79.95-16.02-79.95-16.02s-72.74,43.84-89.13,64.54c0,0,35.64-17.35,61.66-17.35s38.04,7.71,58.29,9.14
	c20.22,1.44,33.24-2.9,35.64,4.81c2.4,7.71-14.92,35.92-35.64,55.53c-20.72,19.62-48.65,30.69-93.93,21.05S278.92,293,278.92,293
	s-10.11-3.98-14.45,4.2c-4.34,8.18-47.22,75.62-50.09,83.82c-2.9,8.18-2.9,8.18-2.9,8.18s10.61-8.68,28.9-21.19
	c18.32-12.52,32.55-28.9,64.43-26.96c31.91,1.93,39.62,5.77,57.44,3.37c17.82-2.4,10.11,20.22,9.14,22.63
	c-0.97,2.4-17.35,58.76-75.15,76.11c-57.8,17.35-103.08-4.81-107.91-4.81s-14.92,17.35-14.92,17.35s-33.71,45.28-68.88,71.78
	c-35.17,26.49-72.25,49.37-72.25,49.37s-5.77,3.12-12.52-3.62C19.74,573.17,15.79,570.29,17.75,563.53z"/>
</svg>
