<?xml version="1.0" encoding="utf-8"?>
<!-- Generator: Adobe Illustrator 23.0.4, SVG Export Plug-In . SVG Version: 6.00 Build 0)  -->
<svg version="1.1" id="Layer_1" xmlns="http://www.w3.org/2000/svg" xmlns:xlink="http://www.w3.org/1999/xlink" x="0px" y="0px"
	 viewBox="0 0 600 600" style="enable-background:new 0 0 600 600;" xml:space="preserve">
<style type="text/css">
	.st0{fill:none;stroke:#010101;stroke-width:2.5421;stroke-miterlimit:10;}
</style>
<path class="st0" d="M123.36,421.43c0,0-38.94,62.49-50.72,90.59c-11.78,28.07-28.07,58.89-22.65,71.55
	c5.42,12.69,23.55,14.5,30.79,5.42c7.24-9.05,28.07-78.81,46.2-109.6C145.1,448.59,147.82,435,154.15,435
	c6.33,0,15.41,14.5,54.35,11.78s58.89-5.42,58.89-25.37c0-19.92-24.46-38.03-42.57-37.15c-18.11,0.91-39.85,6.33-48.02,9.96
	c-8.17,3.63,20.83-38.03,20.83-38.03s22.65,17.2,59.77,16.29c37.15-0.91,60.68-1.82,58.89-31.7s-53.44-30.79-64.31-28.98
	S223,318.13,223,318.13s28.07-35.33,30.79-37.15c2.72-1.82,23.55,18.11,57.98,23.55c34.42,5.42,61.59,3.38,63.4-23.66
	c1.82-27.06-36.24-37.93-52.53-37.93s-38.06,6.33-38.06,6.33s-4.87,0.81,0-4.04s31.95-33.57,31.95-33.57s1.21-2.42,14.15,8.1
	c12.94,10.52,54.57,32.36,83.68,27.89c29.1-4.44,25.88-39.22,15.76-47.31c-10.11-8.1-14.15-18.59-43.65-18.59
	c-29.51,0-42.04,4.04-41.23,0c0,0,21.44-18.18,29.91-25.47c8.47-7.29,11.32-9.71,13.74-7.69c2.42,2.02,42.44,44.06,83.27,44.87
	s36.39-36.8,26.68-48.12c-9.71-11.32-28.3-21.84-44.87-22.65s-35.99,0-35.99,0s30.31-21.44,34.37-23.86
	c4.04-2.42,4.04-3.23,23.05-3.23s60.25-6.88,73.19-32.76c12.94-25.88,0.81-50.94-26.68-51.75c-27.49-0.81-43.25,18.99-48.52,23.45
	c-5.25,4.44-21.84,27.89-25.07,41.64c0,0-6.88,9.71-18.59,16.17c-11.7,6.46-22.65,16.17-22.65,16.17s0.4-7.29,5.65-18.99
	c5.25-11.73,23.05-73.19-19.82-83.68C350.08-4.65,350.48,56.81,352.9,76.2c2.42,19.42,9.31,37.2,12.53,42.44
	c3.23,5.25,9.31,14.15,8.5,16.17c-0.81,2.02-20.23,17.78-26.28,22.65c-6.05,4.84-13.34,12.94-14.55,12.13
	c-1.21-0.81-1.21-4.84,2.42-11.73c3.63-6.88,23.45-76.41-19.42-88.14c-42.85-11.73-42.85,45.29-42.85,53.77
	c0,8.5,11.32,47.31,18.99,57.4c7.69,10.11,9.26,12.53,9.08,16.57c-0.18,4.04-34.95,36.8-34.95,36.8s-2.02-1.61,0-8.9
	c2.02-7.29,12.53-60.65-14.15-79.24s-46.5,8.1-49.33,18.18c-2.82,10.11-2.42,43.25,10.11,65.9c12.53,22.65,24.66,33.16,24.26,35.58
	c-0.4,2.42-26.68,31.52-31.93,39.22c-5.25,7.69-1.21-22.24,0-31.52c1.21-9.31-2.82-62.27-44.87-57.4
	c-42.04,4.84-21.44,67.11-19.82,71.57c1.61,4.44,11.78,31.8,34.37,50.14c0,0,2.02,4.84-2.02,9.71
	c-4.04,4.84-23.45,32.76-23.45,32.76s-2.42-0.81-1.61-14.15c0.81-13.34-2.02-72.3-48.93-66.48c-46.91,5.83-13.04,71.95-9.71,79.82
	C93.77,390.03,123.36,421.43,123.36,421.43z"/>
</svg>
