<?xml version="1.0" encoding="utf-8"?>
<!-- Generator: Adobe Illustrator 23.0.4, SVG Export Plug-In . SVG Version: 6.00 Build 0)  -->
<svg version="1.1" id="Layer_1" xmlns="http://www.w3.org/2000/svg" xmlns:xlink="http://www.w3.org/1999/xlink" x="0px" y="0px"
	 viewBox="0 0 600 600" style="enable-background:new 0 0 600 600;" xml:space="preserve">
<style type="text/css">
	.st0{fill:none;stroke:#000000;stroke-width:6.1096;stroke-miterlimit:10;}
</style>
<path class="st0" d="M75.25,579.42c0,0,22.37-55.91,30.7-69.55s11-17.07,20.43-17.53c9.43-0.45,19.83-0.48,56.09,6.29
	c36.25,6.77,61.86-1.55,85.41-13.09c23.56-11.53,34.69-15.85,47.43-26.39c12.73-10.54,16.14-18.27-3.49-23.47
	c-19.63-5.2-59.86-16.03-83.22-10.18c-23.36,5.85-47.88,16.96-61.15,26.1c-13.27,9.15-27.91,29.23-34.35,22.92l-1.96-2.09
	c0,0,10.36-21.03,13.16-27.37c2.8-6.34,8.36-19.75,18.68-29.26s9.37-8.55,22.6-23.81c13.23-15.26,34.35-39.22,42.1-47.57
	c7.74-8.35,21.58-28.02,31.46-34.83c9.88-6.81,15.63-4.27,15.63-4.27s8.7-2.18,41.38,11.39s61.22-0.48,73.66-5.3
	c12.44-4.82,38.4,0.62,45.49-5.71s6.92-9.84-8.9-16.82s-44.53-25.67-72.39-26.79c-27.86-1.13-35.67,4.88-41.42,2.34
	c-5.75-2.54,1.1-6.39,8.19-12.71c7.09-6.32,16.08-16.96,52.43-37.01s50.46-26.71,60.83-30.73c10.37-4.02,47.22-13.53,82.43-42.68
	s37.18-39.45,45.92-55.36c8.74-15.91,10.77-32.2,10.77-32.2s-23.31-11.15-53.68,9.82c-30.37,20.97-45.86,21.01-69.09,50.28
	s-21.69,39.41-43.84,54.55c-22.15,15.14-44.37,36.28-49.95,37.25s-9.1,1.14,1.08-14.13c10.18-15.27,13.52-18.95,26.58-32.96
	c13.06-14,24.69-32.93,32.14-47.69c7.45-14.76,12.17-41.03,8.85-58.82c-3.32-17.79-10.07-33.66-15.25-31.65
	c-5.18,2.01-21.18,20.73-35.5,37.61c-14.32,16.88-35.25,42.88-40.95,63.57s-8.24,55.66-8.83,72.58s-4.97,21.01-14.26,40.11
	s-20.86,20.01-31.7,28.98c-10.83,8.97-47.23,42.75-61.78,62.1c-14.56,19.36-34.36,46.71-39.63,46.96s-12.38-1.17-12.25-13.14
	c0.13-11.97,0.89-25.39,3.98-34.33c3.09-8.95,12.37-39.71,18.27-68.66c5.9-28.95,8.61-60.4,1.87-76.27
	c-6.75-15.87-11.19-35.01-17.64-30.13c-6.45,4.89-11.28,21.66-18.73,42.44c-7.45,20.77-17.21,44.83-21.69,68.63
	c-4.49,23.8,5.6,35.99,10.13,56.89s10.55,36.45,4.71,61.37s-29.61,65.13-34.05,75.2c-4.44,10.07-51.04,109.81-52.95,114.13
	c-1.9,4.32-1.9,4.32-1.9,4.32S61.9,581.64,75.25,579.42z"/>
</svg>
