<?xml version="1.0" encoding="utf-8"?>
<!-- Generator: Adobe Illustrator 23.0.4, SVG Export Plug-In . SVG Version: 6.00 Build 0)  -->
<svg version="1.1" id="Layer_1" xmlns="http://www.w3.org/2000/svg" xmlns:xlink="http://www.w3.org/1999/xlink" x="0px" y="0px"
	 viewBox="0 0 600 600" style="enable-background:new 0 0 600 600;" xml:space="preserve">
<style type="text/css">
	.st0{fill:none;stroke:#000000;stroke-width:6.3236;stroke-miterlimit:10;}
</style>
<path class="st0" d="M49.96,567.62c0,0,49.15-15.89,71.64-26.47s52.75-28.65,56.83-34.99s9.21-2.88,4.09-6.34
	s-21.09-15.66-34.2-33.31c-13.11-17.65-20.71-53.21-24.11-67.32c-3.41-14.11-8.11-24.27-2.87-43.11
	c5.23-18.84,7.9-31.31,11.25-30.33c3.34,0.98,12.39,7.25,23.4,23.03s31.88,43.65,41.3,62.45c9.43,18.8,21.48,44.37,23.79,51.74
	c2.31,7.37,7.92,1.06,9.82-2.57s25.33-32.21,29.44-40.08c4.11-7.86,0.11-6.11-4.12-8.32c-4.23-2.22-29.9-17.96-44.83-36.55
	c-14.93-18.6-27.84-46.93-35.75-65.71c-7.9-18.77-7.02-52.99-2.51-64.5c4.52-11.51,10.24-23.92,14.48-21.71
	c4.23,2.22,17.66,19.26,27.26,28.9c9.6,9.64,51.95,98.07,54.49,109.42s3.64,18.08,10.61,20.96c6.97,2.88,6.08,1.64,9.88-5.62
	s16.23-30.81,16.23-30.81s-5.79-5.34-20.92-13.25c-15.12-7.91-25.93-18.19-33.37-29.01c-7.44-10.83-20.15-33.66-25.89-53.61
	c-5.74-19.96-3.71-47.4-2.28-58.98c1.43-11.58,9.23-20.6,11.13-24.23c1.9-3.63,9.39,4.14,15.96,12.2s57.21,77.7,64.05,104.4
	c6.84,26.69,2.46,25.17,9.03,28.61c6.57,3.44,9.42-2.01,14.19-12.61c4.78-10.6,15.44-28.91,15.44-28.91s1.62-2.23-18.55-18.18
	c-20.17-15.95-23.02-22.38-40-56.15c-16.98-33.77-20.11-63.14-20.17-76.27c-0.06-13.13,2.58-24.08,7.59-30.71
	c5.01-6.63,13.25,10.02,27.98,23.11s33.61,49.17,44.82,70.45s7.62,34.04,10.85,41.12c3.23,7.08,8.37,6.69,8.37,6.69l16.77-32.06
	c0,0,0.84-9.58-7.83-19.51c-8.67-9.93-22.26-51.71-26.76-72.56c-4.5-20.85-6.76-47.46-1.56-64.77c5.2-17.31,9.66-27.31,11.22-28.81
	c1.55-1.5,5.11,1.9,15.22,17.98s12.22,34.13,19.26,50.14c7.04,16.01,12.28,29.54,14.82,40.89c2.54,11.35,7.46,9.3,9.68,5.06
	c2.22-4.23,6.07-14.55,9.72-30.36s20.96-32.96,32.51-43.86C478.92,42.29,504,40,517.22,35.36s25.34,0.16,26.47,5.37
	c1.13,5.21-0.51,11.29-4.8,28.31s-11.25,30.33-21.21,40.53c-9.96,10.2-26.98,22.1-37.74,26.49s-19.09,8.51-27.67,10.18
	c-8.58,1.67-16.93,7.32-11.75,7.72c5.18,0.4,14.86,5.46,28.71-0.39c13.85-5.85,36.14-5.75,53.59-8.18
	c17.45-2.43,42.02,6.57,46.86,9.11c4.84,2.53-0.14,7.63-17.18,21.06c-17.04,13.43-21.97,15.48-52.03,22.86
	c-30.06,7.39-40.14,7.51-57.54,6.88c-17.4-0.62-32.89-4.88-35.37-3.09c-2.48,1.79-15.08,22.93-16.4,28.41
	c-1.32,5.47-5.04,8.15,2.62,6.77c7.66-1.39,10.05,1.41,27.01-7.44s48.64-4.6,66.3-1.53s42.8,13.92,53.69,19.62
	c10.89,5.7,12.1,6.33,7.72,11.75c-4.38,5.42-21.62,13.35-42.18,18.77c-20.56,5.42-56.88,4.15-77.3,1.94
	c-20.42-2.21-48.1-8.21-54.52-7.72c-6.42,0.49-13.73,15.93-17.58,26.25c-3.85,10.31-10.1,17.83-3.97,16.42s12.04-6.8,30.73-10.12
	c18.69-3.32,48.5,3.03,72.26,6.21s55.94,13.85,63.49,18.57c7.55,4.72-7.48,8.41-17.42,17.09s-26.23,14.79-50.1,17.71
	c-23.87,2.92-58.03,0.46-77.22-2.64c-19.18-3.1-47.76-10.34-50.78-11.93c-3.02-1.58-21.99,33.19-22.36,36.85s0.78,7.34,11.55,2.96
	c10.77-4.38,47.14-6.16,76.43-4.7c29.29,1.45,49.92,9.16,69.33,16.24s32.46,11.59,30.85,16.14c-1.61,4.55-10.91,12.02-32.76,21.39
	c-21.85,9.37-70,20.4-94.63,14.45c-24.63-5.95-52.83-16.85-65.53-23.5c-12.7-6.65-18.75-9.81-21.57-5.89
	c-2.82,3.92-26.36,38.61-30.48,46.47c-4.11,7.86-7.51,9.94,5.04,8.03c12.56-1.91,38.74,2.54,68.92,5.24
	c30.18,2.69,47.21,6.98,61.44,13.65c14.23,6.67,19.96,10.44,16.54,14.05s-14.02,15.01-34.61,21.96s-55.41,7.23-77.36,4.99
	s-61.78-11.52-72.07-16.9c-10.28-5.38-9.88-10.56-13.31-6.96c-3.43,3.6-28.27,26.05-50.76,36.63s-72.99,33.47-77.86,32.47
	C65.87,582.88,49.13,579.52,49.96,567.62z"/>
</svg>
